<?xml version="1.0" encoding="utf-8" standalone="no"?>
<!DOCTYPE svg PUBLIC "-//W3C//DTD SVG 1.1//EN"
  "http://www.w3.org/Graphics/SVG/1.1/DTD/svg11.dtd">
<svg xmlns:xlink="http://www.w3.org/1999/xlink" width="675.904483pt" height="264.711597pt" viewBox="0 0 675.904483 264.711597" xmlns="http://www.w3.org/2000/svg" version="1.1">
 <metadata>
  <rdf:RDF xmlns:dc="http://purl.org/dc/elements/1.1/" xmlns:cc="http://creativecommons.org/ns#" xmlns:rdf="http://www.w3.org/1999/02/22-rdf-syntax-ns#">
   <cc:Work>
    <dc:type rdf:resource="http://purl.org/dc/dcmitype/StillImage"/>
    <dc:date>2024-03-16T06:54:39.900803</dc:date>
    <dc:format>image/svg+xml</dc:format>
    <dc:creator>
     <cc:Agent>
      <dc:title>Matplotlib v3.8.3, https://matplotlib.org/</dc:title>
     </cc:Agent>
    </dc:creator>
   </cc:Work>
  </rdf:RDF>
 </metadata>
 <defs>
  <style type="text/css">*{stroke-linejoin: round; stroke-linecap: butt}</style>
 </defs>
 <g id="figure_1">
  <g id="patch_1">
   <path d="M 0 264.711597 
L 675.904483 264.711597 
L 675.904483 0 
L 0 0 
z
" style="fill: #ffffff"/>
  </g>
  <g id="axes_1">
   <g id="line2d_1">
    <path d="M 56.831691 44.2832 
L 664.069083 44.2832 
" clip-path="url(#p7637915588)" style="fill: none; stroke: #000000; stroke-width: 2; stroke-linecap: square"/>
   </g>
   <g id="line2d_2">
    <path d="M 56.831691 90.637199 
L 664.069083 90.637199 
" clip-path="url(#p7637915588)" style="fill: none; stroke: #000000; stroke-width: 2; stroke-linecap: square"/>
   </g>
   <g id="line2d_3">
    <path d="M 56.831691 136.991198 
L 664.069083 136.991198 
" clip-path="url(#p7637915588)" style="fill: none; stroke: #000000; stroke-width: 2; stroke-linecap: square"/>
   </g>
   <g id="line2d_4">
    <path d="M 66.102491 187.980598 
L 70.73789 178.709798 
" clip-path="url(#p7637915588)" style="fill: none; stroke: #778899; stroke-linecap: square"/>
   </g>
   <g id="line2d_5">
    <path d="M 56.831691 181.838693 
L 664.069083 181.838693 
" clip-path="url(#p7637915588)" style="fill: none; stroke: #778899; stroke-width: 2; stroke-linecap: square"/>
   </g>
   <g id="line2d_6">
    <path d="M 56.831691 184.851703 
L 664.069083 184.851703 
" clip-path="url(#p7637915588)" style="fill: none; stroke: #778899; stroke-width: 2; stroke-linecap: square"/>
   </g>
   <g id="line2d_7">
    <path d="M 66.102491 234.334597 
L 70.73789 225.063797 
" clip-path="url(#p7637915588)" style="fill: none; stroke: #778899; stroke-linecap: square"/>
   </g>
   <g id="line2d_8">
    <path d="M 56.831691 228.192692 
L 664.069083 228.192692 
" clip-path="url(#p7637915588)" style="fill: none; stroke: #778899; stroke-width: 2; stroke-linecap: square"/>
   </g>
   <g id="line2d_9">
    <path d="M 56.831691 231.205702 
L 664.069083 231.205702 
" clip-path="url(#p7637915588)" style="fill: none; stroke: #778899; stroke-width: 2; stroke-linecap: square"/>
   </g>
   <g id="patch_2">
    <path d="M 353.960827 172.799663 
L 366.012867 172.799663 
L 359.986847 181.491038 
z
" clip-path="url(#p7637915588)" style="fill: #778899"/>
   </g>
   <g id="patch_3">
    <path d="M 400.314826 219.153662 
L 412.366866 219.153662 
L 406.340846 227.845037 
z
" clip-path="url(#p7637915588)" style="fill: #778899"/>
   </g>
   <g id="patch_4">
    <path d="M 487.460345 156.691648 
L 563.944444 156.691648 
Q 568.579844 156.691648 568.579844 152.056248 
L 568.579844 121.926148 
Q 568.579844 117.290749 563.944444 117.290749 
L 487.460345 117.290749 
Q 482.824945 117.290749 482.824945 121.926148 
L 482.824945 152.056248 
Q 482.824945 156.691648 487.460345 156.691648 
L 487.460345 156.691648 
z
" clip-path="url(#p7637915588)" style="fill: none; stroke: #1192e8; stroke-width: 3; stroke-linejoin: miter"/>
   </g>
   <g id="text_1">
    <g clip-path="url(#p7637915588)">
     <!--   If -->
     <g transform="translate(483.752025 131.307586) scale(0.13 -0.13)">
      <defs>
       <path id="DejaVuSans-20" transform="scale(0.015625)"/>
       <path id="DejaVuSans-49" d="M 628 4666 
L 1259 4666 
L 1259 0 
L 628 0 
L 628 4666 
z
" transform="scale(0.015625)"/>
       <path id="DejaVuSans-66" d="M 2375 4863 
L 2375 4384 
L 1825 4384 
Q 1516 4384 1395 4259 
Q 1275 4134 1275 3809 
L 1275 3500 
L 2222 3500 
L 2222 3053 
L 1275 3053 
L 1275 0 
L 697 0 
L 697 3053 
L 147 3053 
L 147 3500 
L 697 3500 
L 697 3744 
Q 697 4328 969 4595 
Q 1241 4863 1831 4863 
L 2375 4863 
z
" transform="scale(0.015625)"/>
      </defs>
      <use xlink:href="#DejaVuSans-20"/>
      <use xlink:href="#DejaVuSans-20" x="31.787109"/>
      <use xlink:href="#DejaVuSans-49" x="63.574219"/>
      <use xlink:href="#DejaVuSans-66" x="93.066406"/>
     </g>
    </g>
   </g>
   <g id="patch_5">
    <path d="M -594.905541 434.815644 
Q -590.270141 434.815644 -590.270141 430.180244 
Q -590.270141 395.414745 -594.905541 395.414745 
Q -676.02504 395.414745 -676.02504 400.050145 
Q -676.02504 434.815644 -671.38964 434.815644 
" clip-path="url(#p7637915588)" style="fill: none; stroke: #1192e8; stroke-width: 3; stroke-linejoin: miter"/>
   </g>
   <g id="text_2">
    <g clip-path="url(#p7637915588)">
     <!--   If -->
     <g transform="translate(-675.09796 409.431582) scale(0.13 -0.13)">
      <use xlink:href="#DejaVuSans-20"/>
      <use xlink:href="#DejaVuSans-20" x="31.787109"/>
      <use xlink:href="#DejaVuSans-49" x="63.574219"/>
      <use xlink:href="#DejaVuSans-66" x="93.066406"/>
     </g>
    </g>
   </g>
   <g id="patch_6">
    <path d="M 580.168344 156.691648 
L 656.652443 156.691648 
Q 661.287843 156.691648 661.287843 152.056248 
L 661.287843 121.926148 
Q 661.287843 117.290749 656.652443 117.290749 
L 580.168344 117.290749 
Q 575.532944 117.290749 575.532944 121.926148 
L 575.532944 152.056248 
Q 575.532944 156.691648 580.168344 156.691648 
L 580.168344 156.691648 
z
" clip-path="url(#p7637915588)" style="fill: none; stroke: #1192e8; stroke-width: 3; stroke-linejoin: miter"/>
   </g>
   <g id="text_3">
    <g clip-path="url(#p7637915588)">
     <!--   If -->
     <g transform="translate(576.460024 131.307586) scale(0.13 -0.13)">
      <use xlink:href="#DejaVuSans-20"/>
      <use xlink:href="#DejaVuSans-20" x="31.787109"/>
      <use xlink:href="#DejaVuSans-49" x="63.574219"/>
      <use xlink:href="#DejaVuSans-66" x="93.066406"/>
     </g>
    </g>
   </g>
   <g id="patch_7">
    <path d="M -502.197542 434.815644 
Q -497.562142 434.815644 -497.562142 430.180244 
Q -497.562142 395.414745 -502.197542 395.414745 
Q -583.317041 395.414745 -583.317041 400.050145 
Q -583.317041 434.815644 -578.681641 434.815644 
" clip-path="url(#p7637915588)" style="fill: none; stroke: #1192e8; stroke-width: 3; stroke-linejoin: miter"/>
   </g>
   <g id="text_4">
    <g clip-path="url(#p7637915588)">
     <!--   If -->
     <g transform="translate(-582.389961 409.431582) scale(0.13 -0.13)">
      <use xlink:href="#DejaVuSans-20"/>
      <use xlink:href="#DejaVuSans-20" x="31.787109"/>
      <use xlink:href="#DejaVuSans-49" x="63.574219"/>
      <use xlink:href="#DejaVuSans-66" x="93.066406"/>
     </g>
    </g>
   </g>
   <g id="patch_8">
    <path d="M 52.196291 21.1062 
L -1106.653694 21.1062 
L -1106.653694 299.230196 
L 52.196291 299.230196 
z
" clip-path="url(#p7637915588)" style="fill: #ffffff; stroke: #ffffff; stroke-width: 1.5; stroke-linejoin: miter"/>
   </g>
   <g id="line2d_10">
    <path d="M 128.21685 136.991198 
L 128.21685 90.637199 
" clip-path="url(#p7637915588)" style="fill: none; stroke: #1192e8; stroke-width: 2; stroke-linecap: square"/>
   </g>
   <g id="line2d_11">
    <path d="M 220.924848 90.637199 
L 220.924848 44.2832 
" clip-path="url(#p7637915588)" style="fill: none; stroke: #1192e8; stroke-width: 2; stroke-linecap: square"/>
   </g>
   <g id="line2d_12">
    <path d="M 361.493352 90.637199 
L 361.493352 172.799663 
" clip-path="url(#p7637915588)" style="fill: none; stroke: #778899; stroke-width: 2; stroke-linecap: square"/>
   </g>
   <g id="line2d_13">
    <path d="M 358.480342 90.637199 
L 358.480342 172.799663 
" clip-path="url(#p7637915588)" style="fill: none; stroke: #778899; stroke-width: 2; stroke-linecap: square"/>
   </g>
   <g id="line2d_14">
    <path d="M 407.847351 44.2832 
L 407.847351 219.153662 
" clip-path="url(#p7637915588)" style="fill: none; stroke: #778899; stroke-width: 2; stroke-linecap: square"/>
   </g>
   <g id="line2d_15">
    <path d="M 404.834341 44.2832 
L 404.834341 219.153662 
" clip-path="url(#p7637915588)" style="fill: none; stroke: #778899; stroke-width: 2; stroke-linecap: square"/>
   </g>
   <g id="line2d_16">
    <path d="M 488.96685 158.545808 
L 488.96685 183.345198 
" clip-path="url(#p7637915588)" style="fill: none; stroke: #778899; stroke-width: 2; stroke-linecap: square"/>
   </g>
   <g id="line2d_17">
    <path d="M 485.95384 158.545808 
L 485.95384 183.345198 
" clip-path="url(#p7637915588)" style="fill: none; stroke: #778899; stroke-width: 2; stroke-linecap: square"/>
   </g>
   <g id="line2d_18">
    <path d="M 581.674849 158.545808 
L 581.674849 229.699197 
" clip-path="url(#p7637915588)" style="fill: none; stroke: #778899; stroke-width: 2; stroke-linecap: square"/>
   </g>
   <g id="line2d_19">
    <path d="M 578.661839 158.545808 
L 578.661839 229.699197 
" clip-path="url(#p7637915588)" style="fill: none; stroke: #778899; stroke-width: 2; stroke-linecap: square"/>
   </g>
   <g id="patch_9">
    <path d="M 165.531819 67.460199 
L 183.609879 67.460199 
L 183.609879 21.1062 
L 165.531819 21.1062 
z
" clip-path="url(#p7637915588)" style="fill: #bdbdbd; opacity: 0.6"/>
   </g>
   <g id="patch_10">
    <path d="M 165.531819 113.814199 
L 183.609879 113.814199 
L 183.609879 67.460199 
L 165.531819 67.460199 
z
" clip-path="url(#p7637915588)" style="fill: #bdbdbd; opacity: 0.6"/>
   </g>
   <g id="patch_11">
    <path d="M 165.531819 160.168198 
L 183.609879 160.168198 
L 183.609879 113.814199 
L 165.531819 113.814199 
z
" clip-path="url(#p7637915588)" style="fill: #bdbdbd; opacity: 0.6"/>
   </g>
   <g id="patch_12">
    <path d="M 304.593817 67.460199 
L 322.671877 67.460199 
L 322.671877 21.1062 
L 304.593817 21.1062 
z
" clip-path="url(#p7637915588)" style="fill: #bdbdbd; opacity: 0.6"/>
   </g>
   <g id="patch_13">
    <path d="M 304.593817 113.814199 
L 322.671877 113.814199 
L 322.671877 67.460199 
L 304.593817 67.460199 
z
" clip-path="url(#p7637915588)" style="fill: #bdbdbd; opacity: 0.6"/>
   </g>
   <g id="patch_14">
    <path d="M 304.593817 160.168198 
L 322.671877 160.168198 
L 322.671877 113.814199 
L 304.593817 113.814199 
z
" clip-path="url(#p7637915588)" style="fill: #bdbdbd; opacity: 0.6"/>
   </g>
   <g id="patch_15">
    <path d="M 443.655816 67.460199 
L 461.733875 67.460199 
L 461.733875 21.1062 
L 443.655816 21.1062 
z
" clip-path="url(#p7637915588)" style="fill: #bdbdbd; opacity: 0.6"/>
   </g>
   <g id="patch_16">
    <path d="M 443.655816 113.814199 
L 461.733875 113.814199 
L 461.733875 67.460199 
L 443.655816 67.460199 
z
" clip-path="url(#p7637915588)" style="fill: #bdbdbd; opacity: 0.6"/>
   </g>
   <g id="patch_17">
    <path d="M 443.655816 160.168198 
L 461.733875 160.168198 
L 461.733875 113.814199 
L 443.655816 113.814199 
z
" clip-path="url(#p7637915588)" style="fill: #bdbdbd; opacity: 0.6"/>
   </g>
   <g id="patch_18">
    <path d="M 66.797801 105.702249 
L 96.9279 105.702249 
L 96.9279 75.572149 
L 66.797801 75.572149 
z
" clip-path="url(#p7637915588)" style="fill: #1192e8; stroke: #1192e8; stroke-width: 1.5; stroke-linejoin: miter"/>
   </g>
   <g id="patch_19">
    <path d="M 128.21685 95.156714 
C 129.415439 95.156714 130.565099 94.680509 131.412629 93.832979 
C 132.26016 92.985448 132.736365 91.835788 132.736365 90.637199 
C 132.736365 89.43861 132.26016 88.28895 131.412629 87.441419 
C 130.565099 86.593889 129.415439 86.117684 128.21685 86.117684 
C 127.01826 86.117684 125.868601 86.593889 125.02107 87.441419 
C 124.173539 88.28895 123.697335 89.43861 123.697335 90.637199 
C 123.697335 91.835788 124.173539 92.985448 125.02107 93.832979 
C 125.868601 94.680509 127.01826 95.156714 128.21685 95.156714 
z
" clip-path="url(#p7637915588)" style="fill: #1192e8; stroke: #1192e8; stroke-width: 1.5; stroke-linejoin: miter"/>
   </g>
   <g id="patch_20">
    <path d="M 128.21685 147.536733 
C 131.013558 147.536733 133.696097 146.425589 135.673669 144.448017 
C 137.651241 142.470446 138.762385 139.787907 138.762385 136.991198 
C 138.762385 134.19449 137.651241 131.511951 135.673669 129.534379 
C 133.696097 127.556807 131.013558 126.445663 128.21685 126.445663 
C 125.420141 126.445663 122.737602 127.556807 120.760031 129.534379 
C 118.782459 131.511951 117.671315 134.19449 117.671315 136.991198 
C 117.671315 139.787907 118.782459 142.470446 120.760031 144.448017 
C 122.737602 146.425589 125.420141 147.536733 128.21685 147.536733 
z
" clip-path="url(#p7637915588)" style="fill: #1192e8; stroke: #1192e8; stroke-width: 2; stroke-linejoin: miter"/>
   </g>
   <g id="patch_21">
    <path d="M 220.924848 48.802714 
C 222.123438 48.802714 223.273097 48.32651 224.120628 47.478979 
C 224.968159 46.631448 225.444363 45.481789 225.444363 44.2832 
C 225.444363 43.08461 224.968159 41.934951 224.120628 41.08742 
C 223.273097 40.239889 222.123438 39.763685 220.924848 39.763685 
C 219.726259 39.763685 218.5766 40.239889 217.729069 41.08742 
C 216.881538 41.934951 216.405334 43.08461 216.405334 44.2832 
C 216.405334 45.481789 216.881538 46.631448 217.729069 47.478979 
C 218.5766 48.32651 219.726259 48.802714 220.924848 48.802714 
z
" clip-path="url(#p7637915588)" style="fill: #1192e8; stroke: #1192e8; stroke-width: 1.5; stroke-linejoin: miter"/>
   </g>
   <g id="patch_22">
    <path d="M 220.924848 101.182734 
C 223.721557 101.182734 226.404096 100.07159 228.381668 98.094018 
C 230.359239 96.116447 231.470383 93.433907 231.470383 90.637199 
C 231.470383 87.84049 230.359239 85.157951 228.381668 83.18038 
C 226.404096 81.202808 223.721557 80.091664 220.924848 80.091664 
C 218.12814 80.091664 215.445601 81.202808 213.468029 83.18038 
C 211.490458 85.157951 210.379314 87.84049 210.379314 90.637199 
C 210.379314 93.433907 211.490458 96.116447 213.468029 98.094018 
C 215.445601 100.07159 218.12814 101.182734 220.924848 101.182734 
z
" clip-path="url(#p7637915588)" style="fill: #1192e8; stroke: #1192e8; stroke-width: 2; stroke-linejoin: miter"/>
   </g>
   <g id="patch_23">
    <path d="M 252.213798 59.348249 
L 282.343898 59.348249 
L 282.343898 29.21815 
L 252.213798 29.21815 
z
" clip-path="url(#p7637915588)" style="fill: #1192e8; stroke: #1192e8; stroke-width: 1.5; stroke-linejoin: miter"/>
   </g>
   <g id="patch_24">
    <path d="M 344.921797 105.702249 
L 375.051896 105.702249 
L 375.051896 75.572149 
L 344.921797 75.572149 
z
" clip-path="url(#p7637915588)" style="fill: #121619; stroke: #121619; stroke-width: 1.5; stroke-linejoin: miter"/>
   </g>
   <g id="patch_25">
    <path d="M 370.532382 95.156714 
C 370.532382 92.360937 369.420579 89.676808 367.443666 87.699895 
C 365.466753 85.722982 362.782624 84.611179 359.986847 84.611179 
C 357.19107 84.611179 354.50694 85.722982 352.530027 87.699895 
C 350.553115 89.676808 349.441312 92.360937 349.441312 95.156714 
" clip-path="url(#p7637915588)" style="fill: none; stroke: #ffffff; stroke-width: 2; stroke-linejoin: miter"/>
   </g>
   <g id="line2d_20">
    <path d="M 359.986847 95.156714 
L 370.532382 84.611179 
" clip-path="url(#p7637915588)" style="fill: none; stroke: #ffffff; stroke-width: 2; stroke-linecap: square"/>
   </g>
   <g id="patch_26">
    <path d="M 391.275796 59.348249 
L 421.405896 59.348249 
L 421.405896 29.21815 
L 391.275796 29.21815 
z
" clip-path="url(#p7637915588)" style="fill: #121619; stroke: #121619; stroke-width: 1.5; stroke-linejoin: miter"/>
   </g>
   <g id="patch_27">
    <path d="M 416.886381 48.802714 
C 416.886381 46.006937 415.774578 43.322808 413.797665 41.345895 
C 411.820752 39.368982 409.136623 38.25718 406.340846 38.25718 
C 403.545069 38.25718 400.86094 39.368982 398.884027 41.345895 
C 396.907114 43.322808 395.795311 46.006937 395.795311 48.802714 
" clip-path="url(#p7637915588)" style="fill: none; stroke: #ffffff; stroke-width: 2; stroke-linejoin: miter"/>
   </g>
   <g id="line2d_21">
    <path d="M 406.340846 48.802714 
L 416.886381 38.25718 
" clip-path="url(#p7637915588)" style="fill: none; stroke: #ffffff; stroke-width: 2; stroke-linecap: square"/>
   </g>
   <g id="patch_28">
    <path d="M 487.460345 187.864713 
C 488.658934 187.864713 489.808594 187.388508 490.656125 186.540977 
C 491.503655 185.693447 491.97986 184.543787 491.97986 183.345198 
C 491.97986 182.146608 491.503655 180.996949 490.656125 180.149418 
C 489.808594 179.301887 488.658934 178.825683 487.460345 178.825683 
C 486.261756 178.825683 485.112096 179.301887 484.264565 180.149418 
C 483.417035 180.996949 482.94083 182.146608 482.94083 183.345198 
C 482.94083 184.543787 483.417035 185.693447 484.264565 186.540977 
C 485.112096 187.388508 486.261756 187.864713 487.460345 187.864713 
z
" clip-path="url(#p7637915588)" style="stroke: #000000; stroke-width: 1.5; stroke-linejoin: miter"/>
   </g>
   <g id="patch_29">
    <path d="M 580.168344 234.218712 
C 581.366933 234.218712 582.516593 233.742507 583.364123 232.894977 
C 584.211654 232.047446 584.687859 230.897786 584.687859 229.699197 
C 584.687859 228.500608 584.211654 227.350948 583.364123 226.503417 
C 582.516593 225.655887 581.366933 225.179682 580.168344 225.179682 
C 578.969754 225.179682 577.820095 225.655887 576.972564 226.503417 
C 576.125033 227.350948 575.648829 228.500608 575.648829 229.699197 
C 575.648829 230.897786 576.125033 232.047446 576.972564 232.894977 
C 577.820095 233.742507 578.969754 234.218712 580.168344 234.218712 
z
" clip-path="url(#p7637915588)" style="stroke: #000000; stroke-width: 1.5; stroke-linejoin: miter"/>
   </g>
   <g id="patch_30">
    <path d="M 530.337794 152.056248 
L 560.467894 152.056248 
L 560.467894 121.926148 
L 530.337794 121.926148 
z
" clip-path="url(#p7637915588)" style="fill: #005d5d; stroke: #005d5d; stroke-width: 1.5; stroke-linejoin: miter"/>
   </g>
   <g id="patch_31">
    <path d="M 623.045793 152.056248 
L 653.175893 152.056248 
L 653.175893 121.926148 
L 623.045793 121.926148 
z
" clip-path="url(#p7637915588)" style="fill: #005d5d; stroke: #005d5d; stroke-width: 1.5; stroke-linejoin: miter"/>
   </g>
   <g id="line2d_22">
    <path d="M 128.21685 143.017218 
L 128.21685 130.965178 
" clip-path="url(#p7637915588)" style="fill: none; stroke: #ffffff; stroke-width: 2; stroke-linecap: square"/>
   </g>
   <g id="line2d_23">
    <path d="M 122.19083 136.991198 
L 134.24287 136.991198 
" clip-path="url(#p7637915588)" style="fill: none; stroke: #ffffff; stroke-width: 2; stroke-linecap: square"/>
   </g>
   <g id="line2d_24">
    <path d="M 220.924848 96.663219 
L 220.924848 84.611179 
" clip-path="url(#p7637915588)" style="fill: none; stroke: #ffffff; stroke-width: 2; stroke-linecap: square"/>
   </g>
   <g id="line2d_25">
    <path d="M 214.898829 90.637199 
L 226.950868 90.637199 
" clip-path="url(#p7637915588)" style="fill: none; stroke: #ffffff; stroke-width: 2; stroke-linecap: square"/>
   </g>
   <g id="text_5">
    <g clip-path="url(#p7637915588)">
     <!-- ${Q}$ -->
     <g transform="translate(34.723391 48.767184) scale(0.1625 -0.1625)">
      <defs>
       <path id="DejaVuSans-Oblique-51" d="M 2309 -84 
Q 2275 -88 2237 -89 
Q 2200 -91 2125 -91 
Q 1250 -91 756 411 
Q 263 913 263 1797 
Q 263 2319 452 2844 
Q 641 3369 978 3788 
Q 1369 4269 1858 4509 
Q 2347 4750 2938 4750 
Q 3794 4750 4287 4245 
Q 4781 3741 4781 2869 
Q 4781 1928 4265 1147 
Q 3750 366 2919 44 
L 3553 -825 
L 2847 -825 
L 2309 -84 
z
M 2919 4238 
Q 2400 4238 2003 3986 
Q 1606 3734 1313 3219 
Q 1125 2891 1026 2522 
Q 928 2153 928 1778 
Q 928 1128 1239 775 
Q 1550 422 2119 422 
Q 2631 422 3032 676 
Q 3434 931 3719 1434 
Q 3909 1772 4009 2142 
Q 4109 2513 4109 2881 
Q 4109 3528 3796 3883 
Q 3484 4238 2919 4238 
z
" transform="scale(0.015625)"/>
      </defs>
      <use xlink:href="#DejaVuSans-Oblique-51" transform="translate(0 0.78125)"/>
     </g>
    </g>
   </g>
   <g id="text_6">
    <g clip-path="url(#p7637915588)">
     <!-- ${A}$ -->
     <g transform="translate(36.348391 95.121183) scale(0.1625 -0.1625)">
      <defs>
       <path id="DejaVuSans-Oblique-41" d="M 2356 4666 
L 3072 4666 
L 3938 0 
L 3278 0 
L 3084 1197 
L 984 1197 
L 325 0 
L -341 0 
L 2356 4666 
z
M 2584 4044 
L 1275 1722 
L 2988 1722 
L 2584 4044 
z
" transform="scale(0.015625)"/>
      </defs>
      <use xlink:href="#DejaVuSans-Oblique-41" transform="translate(0 0.09375)"/>
     </g>
    </g>
   </g>
   <g id="text_7">
    <g clip-path="url(#p7637915588)">
     <!-- ${B}$ -->
     <g transform="translate(36.348391 141.475183) scale(0.1625 -0.1625)">
      <defs>
       <path id="DejaVuSans-Oblique-42" d="M 1081 4666 
L 2694 4666 
Q 3350 4666 3675 4422 
Q 4000 4178 4000 3688 
Q 4000 3238 3720 2911 
Q 3441 2584 2988 2516 
Q 3375 2428 3569 2181 
Q 3763 1934 3763 1522 
Q 3763 819 3242 409 
Q 2722 0 1819 0 
L 172 0 
L 1081 4666 
z
M 1234 2228 
L 903 519 
L 1919 519 
Q 2491 519 2800 781 
Q 3109 1044 3109 1522 
Q 3109 1891 2904 2059 
Q 2700 2228 2247 2228 
L 1234 2228 
z
M 1606 4147 
L 1331 2741 
L 2272 2741 
Q 2775 2741 3058 2959 
Q 3341 3178 3341 3566 
Q 3341 3869 3150 4008 
Q 2959 4147 2541 4147 
L 1606 4147 
z
" transform="scale(0.015625)"/>
      </defs>
      <use xlink:href="#DejaVuSans-Oblique-42" transform="translate(0 0.09375)"/>
     </g>
    </g>
   </g>
   <g id="text_8">
    <g clip-path="url(#p7637915588)">
     <!-- 1 -->
     <g transform="translate(61.467091 176.546923) scale(0.104 -0.104)">
      <defs>
       <path id="DejaVuSans-31" d="M 794 531 
L 1825 531 
L 1825 4091 
L 703 3866 
L 703 4441 
L 1819 4666 
L 2450 4666 
L 2450 531 
L 3481 531 
L 3481 0 
L 794 0 
L 794 531 
z
" transform="scale(0.015625)"/>
      </defs>
      <use xlink:href="#DejaVuSans-31"/>
     </g>
    </g>
   </g>
   <g id="text_9">
    <g clip-path="url(#p7637915588)">
     <!-- a -->
     <g transform="translate(37.602688 187.829182) scale(0.1625 -0.1625)">
      <defs>
       <path id="DejaVuSans-61" d="M 2194 1759 
Q 1497 1759 1228 1600 
Q 959 1441 959 1056 
Q 959 750 1161 570 
Q 1363 391 1709 391 
Q 2188 391 2477 730 
Q 2766 1069 2766 1631 
L 2766 1759 
L 2194 1759 
z
M 3341 1997 
L 3341 0 
L 2766 0 
L 2766 531 
Q 2569 213 2275 61 
Q 1981 -91 1556 -91 
Q 1019 -91 701 211 
Q 384 513 384 1019 
Q 384 1609 779 1909 
Q 1175 2209 1959 2209 
L 2766 2209 
L 2766 2266 
Q 2766 2663 2505 2880 
Q 2244 3097 1772 3097 
Q 1472 3097 1187 3025 
Q 903 2953 641 2809 
L 641 3341 
Q 956 3463 1253 3523 
Q 1550 3584 1831 3584 
Q 2591 3584 2966 3190 
Q 3341 2797 3341 1997 
z
" transform="scale(0.015625)"/>
      </defs>
      <use xlink:href="#DejaVuSans-61"/>
     </g>
    </g>
   </g>
   <g id="text_10">
    <g clip-path="url(#p7637915588)">
     <!-- 1 -->
     <g transform="translate(61.467091 222.900922) scale(0.104 -0.104)">
      <use xlink:href="#DejaVuSans-31"/>
     </g>
    </g>
   </g>
   <g id="text_11">
    <g clip-path="url(#p7637915588)">
     <!-- b -->
     <g transform="translate(37.24468 234.183181) scale(0.1625 -0.1625)">
      <defs>
       <path id="DejaVuSans-62" d="M 3116 1747 
Q 3116 2381 2855 2742 
Q 2594 3103 2138 3103 
Q 1681 3103 1420 2742 
Q 1159 2381 1159 1747 
Q 1159 1113 1420 752 
Q 1681 391 2138 391 
Q 2594 391 2855 752 
Q 3116 1113 3116 1747 
z
M 1159 2969 
Q 1341 3281 1617 3432 
Q 1894 3584 2278 3584 
Q 2916 3584 3314 3078 
Q 3713 2572 3713 1747 
Q 3713 922 3314 415 
Q 2916 -91 2278 -91 
Q 1894 -91 1617 61 
Q 1341 213 1159 525 
L 1159 0 
L 581 0 
L 581 4863 
L 1159 4863 
L 1159 2969 
z
" transform="scale(0.015625)"/>
      </defs>
      <use xlink:href="#DejaVuSans-62"/>
     </g>
    </g>
   </g>
   <g id="text_12">
    <g clip-path="url(#p7637915588)">
     <!-- H -->
     <g style="fill: #ffffff" transform="translate(76.974647 94.224386) scale(0.13 -0.13)">
      <defs>
       <path id="DejaVuSans-48" d="M 628 4666 
L 1259 4666 
L 1259 2753 
L 3553 2753 
L 3553 4666 
L 4184 4666 
L 4184 0 
L 3553 0 
L 3553 2222 
L 1259 2222 
L 1259 0 
L 628 0 
L 628 4666 
z
" transform="scale(0.015625)"/>
      </defs>
      <use xlink:href="#DejaVuSans-48"/>
     </g>
    </g>
   </g>
   <g id="line2d_26">
    <path d="M 174.570849 21.1062 
L 174.570849 67.460199 
" clip-path="url(#p7637915588)" style="fill: none; stroke-dasharray: 3.7,1.6; stroke-dashoffset: 0; stroke: #000000"/>
   </g>
   <g id="line2d_27">
    <path d="M 174.570849 67.460199 
L 174.570849 113.814199 
" clip-path="url(#p7637915588)" style="fill: none; stroke-dasharray: 3.7,1.6; stroke-dashoffset: 0; stroke: #000000"/>
   </g>
   <g id="line2d_28">
    <path d="M 174.570849 113.814199 
L 174.570849 160.168198 
" clip-path="url(#p7637915588)" style="fill: none; stroke-dasharray: 3.7,1.6; stroke-dashoffset: 0; stroke: #000000"/>
   </g>
   <g id="text_13">
    <g clip-path="url(#p7637915588)">
     <!-- H -->
     <g style="fill: #ffffff" transform="translate(262.390645 47.870387) scale(0.13 -0.13)">
      <use xlink:href="#DejaVuSans-48"/>
     </g>
    </g>
   </g>
   <g id="line2d_29">
    <path d="M 313.632847 21.1062 
L 313.632847 67.460199 
" clip-path="url(#p7637915588)" style="fill: none; stroke-dasharray: 3.7,1.6; stroke-dashoffset: 0; stroke: #000000"/>
   </g>
   <g id="line2d_30">
    <path d="M 313.632847 67.460199 
L 313.632847 113.814199 
" clip-path="url(#p7637915588)" style="fill: none; stroke-dasharray: 3.7,1.6; stroke-dashoffset: 0; stroke: #000000"/>
   </g>
   <g id="line2d_31">
    <path d="M 313.632847 113.814199 
L 313.632847 160.168198 
" clip-path="url(#p7637915588)" style="fill: none; stroke-dasharray: 3.7,1.6; stroke-dashoffset: 0; stroke: #000000"/>
   </g>
   <g id="text_14">
    <g clip-path="url(#p7637915588)">
     <!-- 0 -->
     <g transform="translate(371.575346 176.546923) scale(0.104 -0.104)">
      <defs>
       <path id="DejaVuSans-30" d="M 2034 4250 
Q 1547 4250 1301 3770 
Q 1056 3291 1056 2328 
Q 1056 1369 1301 889 
Q 1547 409 2034 409 
Q 2525 409 2770 889 
Q 3016 1369 3016 2328 
Q 3016 3291 2770 3770 
Q 2525 4250 2034 4250 
z
M 2034 4750 
Q 2819 4750 3233 4129 
Q 3647 3509 3647 2328 
Q 3647 1150 3233 529 
Q 2819 -91 2034 -91 
Q 1250 -91 836 529 
Q 422 1150 422 2328 
Q 422 3509 836 4129 
Q 1250 4750 2034 4750 
z
" transform="scale(0.015625)"/>
      </defs>
      <use xlink:href="#DejaVuSans-30"/>
     </g>
    </g>
   </g>
   <g id="text_15">
    <g clip-path="url(#p7637915588)">
     <!-- 0 -->
     <g transform="translate(417.929346 222.900922) scale(0.104 -0.104)">
      <use xlink:href="#DejaVuSans-30"/>
     </g>
    </g>
   </g>
   <g id="line2d_32">
    <path d="M 452.694845 21.1062 
L 452.694845 67.460199 
" clip-path="url(#p7637915588)" style="fill: none; stroke-dasharray: 3.7,1.6; stroke-dashoffset: 0; stroke: #000000"/>
   </g>
   <g id="line2d_33">
    <path d="M 452.694845 67.460199 
L 452.694845 113.814199 
" clip-path="url(#p7637915588)" style="fill: none; stroke-dasharray: 3.7,1.6; stroke-dashoffset: 0; stroke: #000000"/>
   </g>
   <g id="line2d_34">
    <path d="M 452.694845 113.814199 
L 452.694845 160.168198 
" clip-path="url(#p7637915588)" style="fill: none; stroke-dasharray: 3.7,1.6; stroke-dashoffset: 0; stroke: #000000"/>
   </g>
   <g id="text_16">
    <g clip-path="url(#p7637915588)">
     <!-- 0x1 -->
     <g transform="translate(480.002845 198.462978) scale(0.08 -0.08)">
      <defs>
       <path id="DejaVuSans-78" d="M 3513 3500 
L 2247 1797 
L 3578 0 
L 2900 0 
L 1881 1375 
L 863 0 
L 184 0 
L 1544 1831 
L 300 3500 
L 978 3500 
L 1906 2253 
L 2834 3500 
L 3513 3500 
z
" transform="scale(0.015625)"/>
      </defs>
      <use xlink:href="#DejaVuSans-30"/>
      <use xlink:href="#DejaVuSans-78" x="63.623047"/>
      <use xlink:href="#DejaVuSans-31" x="122.802734"/>
     </g>
    </g>
   </g>
   <g id="text_17">
    <g clip-path="url(#p7637915588)">
     <!-- 0x1 -->
     <g transform="translate(572.710844 244.816977) scale(0.08 -0.08)">
      <use xlink:href="#DejaVuSans-30"/>
      <use xlink:href="#DejaVuSans-78" x="63.623047"/>
      <use xlink:href="#DejaVuSans-31" x="122.802734"/>
     </g>
    </g>
   </g>
   <g id="text_18">
    <g clip-path="url(#p7637915588)">
     <!-- X -->
     <g style="fill: #ffffff" transform="translate(540.950344 140.578386) scale(0.13 -0.13)">
      <defs>
       <path id="DejaVuSans-58" d="M 403 4666 
L 1081 4666 
L 2241 2931 
L 3406 4666 
L 4084 4666 
L 2584 2425 
L 4184 0 
L 3506 0 
L 2194 1984 
L 872 0 
L 191 0 
L 1856 2491 
L 403 4666 
z
" transform="scale(0.015625)"/>
      </defs>
      <use xlink:href="#DejaVuSans-58"/>
     </g>
    </g>
   </g>
   <g id="text_19">
    <g clip-path="url(#p7637915588)">
     <!-- Z -->
     <g style="fill: #ffffff" transform="translate(633.658343 140.578386) scale(0.13 -0.13)">
      <defs>
       <path id="DejaVuSans-5a" d="M 359 4666 
L 4025 4666 
L 4025 4184 
L 1075 531 
L 4097 531 
L 4097 0 
L 288 0 
L 288 481 
L 3238 4134 
L 359 4134 
L 359 4666 
z
" transform="scale(0.015625)"/>
      </defs>
      <use xlink:href="#DejaVuSans-5a"/>
     </g>
    </g>
   </g>
  </g>
 </g>
 <defs>
  <clipPath id="p7637915588">
   <rect x="7.2" y="7.2" width="661.504483" height="250.311597"/>
  </clipPath>
 </defs>
</svg>
